<svg xmlns="http://www.w3.org/2000/svg" viewBox="0 0 1080 1920" width="1080" height="1920">
  <defs>
    <linearGradient id="bg" x1="0%" y1="0%" x2="100%" y2="100%">
      <stop offset="0%" style="stop-color:#0a0a1a"/>
      <stop offset="100%" style="stop-color:#161630"/>
    </linearGradient>
    <filter id="glow"><feGaussianBlur stdDeviation="5" result="b"/>
      <feMerge><feMergeNode in="b"/><feMergeNode in="SourceGraphic"/></feMerge></filter>
  </defs>
  <rect width="1080" height="1920" fill="url(#bg)"/>
  <circle cx="200" cy="400" r="300" fill="#6C3AE0" opacity="0.04"/>

  <text x="540" y="280" text-anchor="middle" font-size="80">✅</text>
  <text x="540" y="400" text-anchor="middle" font-family="system-ui, sans-serif" font-size="60" font-weight="bold" fill="#ffffff">Умные задачи</text>

  <!-- Task cards -->
  <g transform="translate(80, 500)">
    <rect width="920" height="130" rx="22" fill="#1e1e38" stroke="#6C3AE0" stroke-width="1.5" stroke-opacity="0.3"/>
    <circle cx="60" cy="65" r="22" fill="none" stroke="#FF6B6B" stroke-width="3"/>
    <text x="105" y="55" font-family="system-ui, sans-serif" font-size="28" fill="#eee">Купить продукты</text>
    <text x="105" y="90" font-family="system-ui, sans-serif" font-size="18" fill="#666">Сегодня, 18:00</text>
    <rect x="780" y="50" width="80" height="10" rx="5" fill="#FF6B6B"/>
    <text x="790" y="90" font-family="system-ui, sans-serif" font-size="14" fill="#FF6B6B">Высокий</text>
  </g>

  <g transform="translate(80, 650)">
    <rect width="920" height="130" rx="22" fill="#1e1e38" stroke="#6C3AE0" stroke-width="1.5" stroke-opacity="0.3"/>
    <circle cx="60" cy="65" r="22" fill="#00E5A0" opacity="0.3"/>
    <text x="48" y="73" font-size="26" fill="#00E5A0">✓</text>
    <text x="105" y="55" font-family="system-ui, sans-serif" font-size="28" fill="#666" text-decoration="line-through">Оплатить интернет</text>
    <text x="105" y="90" font-family="system-ui, sans-serif" font-size="18" fill="#444">Выполнено</text>
  </g>

  <g transform="translate(80, 800)">
    <rect width="920" height="130" rx="22" fill="#1e1e38" stroke="#6C3AE0" stroke-width="1.5" stroke-opacity="0.3"/>
    <circle cx="60" cy="65" r="22" fill="none" stroke="#FFB347" stroke-width="3"/>
    <text x="105" y="55" font-family="system-ui, sans-serif" font-size="28" fill="#eee">Подготовить отчёт</text>
    <text x="105" y="90" font-family="system-ui, sans-serif" font-size="18" fill="#666">Завтра, 10:00 · Повторяется</text>
    <rect x="780" y="50" width="80" height="10" rx="5" fill="#FFB347"/>
  </g>

  <g transform="translate(80, 950)">
    <rect width="920" height="130" rx="22" fill="#1e1e38" stroke="#6C3AE0" stroke-width="1.5" stroke-opacity="0.3"/>
    <circle cx="60" cy="65" r="22" fill="none" stroke="#00C9FF" stroke-width="3"/>
    <text x="105" y="55" font-family="system-ui, sans-serif" font-size="28" fill="#eee">Прочитать главу книги</text>
    <text x="105" y="90" font-family="system-ui, sans-serif" font-size="18" fill="#666">Пт, 21:00 · 2 подзадачи</text>
    <rect x="780" y="50" width="80" height="10" rx="5" fill="#00C9FF"/>
  </g>

  <!-- Feature pills bottom -->
  <g transform="translate(540, 1200)">
    <rect x="-420" y="0" width="200" height="50" rx="25" fill="#6C3AE0" opacity="0.2"/>
    <text x="-320" y="33" text-anchor="middle" font-family="system-ui, sans-serif" font-size="18" fill="#B8A0FF">Приоритеты</text>
    <rect x="-200" y="0" width="180" height="50" rx="25" fill="#6C3AE0" opacity="0.2"/>
    <text x="-110" y="33" text-anchor="middle" font-family="system-ui, sans-serif" font-size="18" fill="#B8A0FF">Подзадачи</text>
    <rect x="0" y="0" width="200" height="50" rx="25" fill="#6C3AE0" opacity="0.2"/>
    <text x="100" y="33" text-anchor="middle" font-family="system-ui, sans-serif" font-size="18" fill="#B8A0FF">Свайп-жесты</text>
    <rect x="220" y="0" width="200" height="50" rx="25" fill="#6C3AE0" opacity="0.2"/>
    <text x="320" y="33" text-anchor="middle" font-family="system-ui, sans-serif" font-size="18" fill="#B8A0FF">Напоминания</text>
  </g>

  <text x="540" y="1360" text-anchor="middle" font-family="system-ui, sans-serif" font-size="26" fill="#555577">Свайпни → завершить или удалить</text>
</svg>