<svg xmlns="http://www.w3.org/2000/svg" viewBox="0 0 1080 1920" width="1080" height="1920">
  <defs>
    <linearGradient id="bg" x1="0%" y1="0%" x2="100%" y2="100%">
      <stop offset="0%" style="stop-color:#0a0a1a"/>
      <stop offset="100%" style="stop-color:#0a1a20"/>
    </linearGradient>
    <filter id="glow"><feGaussianBlur stdDeviation="5" result="b"/>
      <feMerge><feMergeNode in="b"/><feMergeNode in="SourceGraphic"/></feMerge></filter>
  </defs>
  <rect width="1080" height="1920" fill="url(#bg)"/>
  <circle cx="800" cy="500" r="300" fill="#00E5A0" opacity="0.03"/>

  <text x="540" y="280" text-anchor="middle" font-size="80">💰</text>
  <text x="540" y="400" text-anchor="middle" font-family="system-ui, sans-serif" font-size="60" font-weight="bold" fill="#ffffff">Учёт финансов</text>

  <!-- Balance card -->
  <g transform="translate(80, 480)">
    <rect width="920" height="200" rx="28" fill="#1e1e38" stroke="#00E5A0" stroke-width="2" stroke-opacity="0.3"/>
    <text x="50" y="55" font-family="system-ui, sans-serif" font-size="22" fill="#666">Текущий баланс</text>
    <text x="50" y="120" font-family="system-ui, sans-serif" font-size="64" font-weight="bold" fill="#00E5A0" filter="url(#glow)">₽42 350</text>
    <text x="420" y="120" font-family="system-ui, sans-serif" font-size="24" fill="#00E5A0">↑ +12.3%</text>
    <text x="50" y="165" font-family="system-ui, sans-serif" font-size="20" fill="#555">Доходы: ₽65 000 · Расходы: ₽22 650</text>
  </g>

  <!-- Chart bars -->
  <g transform="translate(80, 720)">
    <rect width="920" height="260" rx="28" fill="#1e1e38"/>
    <text x="50" y="45" font-family="system-ui, sans-serif" font-size="20" fill="#666">Расходы по категориям</text>

    <rect x="50" y="75" width="500" height="30" rx="8" fill="#FF6B6B" opacity="0.8"/>
    <text x="560" y="97" font-family="system-ui, sans-serif" font-size="16" fill="#ccc">Еда — ₽8 500</text>

    <rect x="50" y="115" width="350" height="30" rx="8" fill="#FFB347" opacity="0.8"/>
    <text x="410" y="137" font-family="system-ui, sans-serif" font-size="16" fill="#ccc">Транспорт — ₽5 200</text>

    <rect x="50" y="155" width="250" height="30" rx="8" fill="#00C9FF" opacity="0.8"/>
    <text x="310" y="177" font-family="system-ui, sans-serif" font-size="16" fill="#ccc">Развлечения — ₽4 100</text>

    <rect x="50" y="195" width="180" height="30" rx="8" fill="#B8A0FF" opacity="0.8"/>
    <text x="240" y="217" font-family="system-ui, sans-serif" font-size="16" fill="#ccc">Прочее — ₽2 850</text>
  </g>

  <!-- Health indicator -->
  <g transform="translate(80, 1020)">
    <rect width="920" height="120" rx="28" fill="#0a2a1a" stroke="#00E5A0" stroke-width="1.5" stroke-opacity="0.3"/>
    <text x="50" y="50" font-family="system-ui, sans-serif" font-size="22" fill="#666">Здоровье бюджета</text>
    <rect x="50" y="70" width="700" height="18" rx="9" fill="#1a3a2a"/>
    <rect x="50" y="70" width="550" height="18" rx="9" fill="#00E5A0"/>
    <text x="770" y="87" font-family="system-ui, sans-serif" font-size="22" font-weight="bold" fill="#00E5A0">78%</text>
    <text x="820" y="87" font-family="system-ui, sans-serif" font-size="18" fill="#00E5A0">✓</text>
  </g>

  <!-- Features -->
  <g transform="translate(540, 1260)">
    <text x="-350" y="0" font-family="system-ui, sans-serif" font-size="22" fill="#00E5A0">✓ Лимиты расходов</text>
    <text x="50" y="0" font-family="system-ui, sans-serif" font-size="22" fill="#00E5A0">✓ Учёт долгов</text>
    <text x="-350" y="50" font-family="system-ui, sans-serif" font-size="22" fill="#00E5A0">✓ Графики</text>
    <text x="50" y="50" font-family="system-ui, sans-serif" font-size="22" fill="#00E5A0">✓ Виджет баланса</text>
  </g>
</svg>